<?xml version="1.0" encoding="utf-8"?>
<svg viewBox="0 0 310 310" xmlns="http://www.w3.org/2000/svg">
  <g id="g8" transform="matrix(1.3333330154418945, 0, 0, -1.3333330154418945, 0, 290.0003356933594)">
    <g id="g10" transform="scale(0.1)">
      <path d="M 636.016,621.75 C 632.641,414.16 614.078,297.707 610.703,90.1055 1064.71,-146.172 1442.75,164.375 1775.25,100.234 c 18.56,288.602 -13.51,377.215 -30.39,625.321 310.33,124.289 698.51,523.205 529.65,884.095 -96.87,207.06 -426.78,270.32 -671.41,45.01 -104.87,359.6 -1056.991,586.63 -1063.28,-68.35 -398.73,-10.14 -1029.105,-822.794 96.196,-964.56 v 0" style="fill: rgb(101, 98, 99); fill-opacity: 1; fill-rule: evenodd; stroke: rgb(0, 0, 0); paint-order: stroke;" id="path12"/>
      <path d="m 703.48,635.469 c -3.507,-184.258 -22.574,-319.836 -25.593,-505.821 423.823,-182.4878 753.273,93.43 1059.943,34.27 -2.5,246.687 -29.15,334.273 -50.3,526.969 -247.74,83.164 -683.21,-83.133 -984.05,-55.418 v 0" style="fill: rgb(255, 255, 255); fill-opacity: 1; fill-rule: evenodd; stroke: rgb(0, 0, 0); paint-order: stroke;" id="path14"/>
      <path d="m 1731.52,782.082 c 118.37,63.66 241.3,155.145 312.55,235.258 286.85,322.52 214.24,664.56 -39.86,695.09 -112.88,13.55 -280.85,-38.45 -354.89,-131.12 -28.64,-35.87 -55.88,-88.56 -75.54,-168.67 -4.73,294.38 -207.3,444.08 -462.36,497.57 -377.315,79.15 -660.057,-229.86 -352.311,-572.53 -203.418,166.2 -237.254,216.2 -421.3,103.84 C 214.82,1366.45 114.48,1235.29 85.9297,1105.61 39.0586,892.695 221.445,780.711 413.402,724.316 546.758,685.129 692.313,664.305 831.117,678.895 823.215,733.652 820.742,825.027 767.145,934.402 848.031,829.891 868.938,728.477 874.332,684.16 c 120.199,16.672 240.608,48.973 359.618,75.977 -0.91,81.394 -3.58,230.222 -11.37,363.823 33.68,-143.569 60.47,-269.987 77.99,-349.37 78.04,16.004 155.34,28.015 231.41,30.019 12.31,85.789 48.7,270.891 145.82,414.391 -62.34,-174.85 -67.27,-326.473 -68.85,-416.078 41.3,-3.008 82.18,-9.582 122.57,-20.84 v 0" style="fill: rgb(255, 255, 255); fill-opacity: 1; fill-rule: evenodd; stroke: rgb(0, 0, 0); paint-order: stroke;" id="path16"/>
      <path d="m 1187.04,126.59 c 326.41,83.926 402.35,127.035 517.18,76.926 -0.91,171.386 -42.33,284.433 -45.94,463.273 C 1289.96,722.336 1102.27,530.371 747.551,616.297 1025.23,467.988 1346.28,595.059 1584.08,576.609 1577.4,494.07 1670.74,284.875 1561.7,260.605 1460.3,238.039 1319.93,200.438 1187.04,126.59 v 0" style="fill: rgb(211, 210, 210); fill-opacity: 1; fill-rule: evenodd; stroke: rgb(0, 0, 0); paint-order: stroke;" id="path18"/>
      <path d="m 509.648,753.555 c 144.04,-49.59 250.84,-77.785 268.071,-10.723 32.301,125.684 -152.231,327.998 -275.664,488.688 121.484,-199.75 255.621,-428.532 7.593,-477.965 v 0" style="fill: rgb(211, 210, 210); fill-opacity: 1; fill-rule: evenodd; stroke: rgb(0, 0, 0); paint-order: stroke;" id="path20"/>
      <path d="m 945.078,724.48 c 95.062,11.899 183.242,25.196 224.762,78.946 59.39,76.894 27.01,283.954 -2.83,466.084 -8.76,-144.3 -1.4,-311.748 -36.85,-388.006 C 1097.87,812.07 1062.52,764.922 945.078,724.48 v 0" style="fill: rgb(211, 210, 210); fill-opacity: 1; fill-rule: evenodd; stroke: rgb(0, 0, 0); paint-order: stroke;" id="path22"/>
      <path d="m 1327.12,816.863 c 97.65,5.567 149.53,5.899 175.78,67.559 36.56,85.891 74.11,310.948 149.35,362.308 -100.37,-47.04 -133.02,-201.02 -188.86,-295.089 -31.33,-52.774 -71.55,-109.7 -136.27,-134.778 v 0" style="fill: rgb(211, 210, 210); fill-opacity: 1; fill-rule: evenodd; stroke: rgb(0, 0, 0); paint-order: stroke;" id="path24"/>
      <path d="M 1664.81,1090.57 C 1641.02,940.754 1631,834.289 1689.86,823.855 1818.03,801.141 2215.97,1106.7 2178,1508.09 2147.82,1118.76 1820.91,903.172 1735.61,909.492 c -44.67,3.301 -66.31,82.821 -70.8,181.078 v 0" style="fill: rgb(211, 210, 210); fill-opacity: 1; fill-rule: evenodd; stroke: rgb(0, 0, 0); paint-order: stroke;" id="path26"/>
      <path d="m 1528.85,1283.07 c 101.01,349.04 -276.58,703.64 -640.467,565.27 340.897,41.79 651.117,-233.63 640.467,-565.27 v 0" style="fill: rgb(211, 210, 210); fill-opacity: 1; fill-rule: evenodd; stroke: rgb(0, 0, 0); paint-order: stroke;" id="path28"/>
      <path d="m 744.883,1304.07 c -127.281,170.36 -386.945,229.23 -512.973,-2.06 142.899,164.7 365.516,92.35 512.973,2.06 v 0" style="fill: rgb(211, 210, 210); fill-opacity: 1; fill-rule: evenodd; stroke: rgb(0, 0, 0); paint-order: stroke;" id="path30"/>
    </g>
  </g>
</svg>